# xmcd
#
# Track frame offsets:
#	225
#	10261
#	27079
#	50095
#	70871
#	86873
#	106550
#	125741
#	144547
#	159332
#	179079
#	193749
#	211007
#	230401
#	252871
#
# Disc length: 3613 seconds
#
# Revision: 1
# Processed by: cddbd v1.5.2PL0 Copyright (c) Steve Scherf et al.
# Submitted via: audiograbber 1.83.01
#
DISCID=cf0e1a0f
DTITLE=Various Artist - Without You
DYEAR=1900
DGENRE=Pop
TTITLE0=Chris Isaak - Don"t Leave Me On My Own
TTITLE1=Fleetwood Mac - Ever ywhere
TTITLE2=Elton John - Sacrifice
TTITLE3=Everything But The Girl  - Wrong
TTITLE4=Chris De Burgh - Diamond in the Dark
TTITLE5=Celine Dion - Refuse to Dance
TTITLE6=Yello - Drive Driven
TTITLE7=Tina Tuner - Simply The Best
TTITLE8=Nilsson - Without You
TTITLE9=No Doubt - Don"t Speak
TTITLE10=George Harrison - Cloud 9
TTITLE11=Barbara Streisland - Woman in Love
TTITLE12=Stivie B - Celebration
TTITLE13=Mylene Farmer - California
TTITLE14=Sice Girls - 2 become 1
EXTD=
EXTT0=
EXTT1=
EXTT2=
EXTT3=
EXTT4=
EXTT5=
EXTT6=
EXTT7=
EXTT8=
EXTT9=
EXTT10=
EXTT11=
EXTT12=
EXTT13=
EXTT14=
PLAYORDER=
